<svg width="24" height="28" viewBox="0 0 24 28" fill="none" xmlns="http://www.w3.org/2000/svg">
<path d="M12.002 27.3333C13.7422 27.3333 15.166 26.1025 15.166 24.5982H8.83791C8.83791 25.3236 9.17127 26.0193 9.76464 26.5322C10.358 27.0451 11.1628 27.3333 12.002 27.3333ZM21.4941 19.1282V12.2906C21.4941 8.09227 18.8996 4.57774 14.375 3.64782V2.71791C14.375 1.58287 13.315 0.666626 12.002 0.666626C10.6889 0.666626 9.62892 1.58287 9.62892 2.71791V3.64782C5.08853 4.57774 2.50984 8.07859 2.50984 12.2906V19.1282L0.469033 20.8923C-0.527639 21.7538 0.168449 23.2307 1.57645 23.2307H22.4116C23.8196 23.2307 24.5315 21.7538 23.5349 20.8923L21.4941 19.1282Z" fill="#2E3A59"/>
</svg>
